<svg width="25" height="25" fill="none" xmlns="http://www.w3.org/2000/svg"><path fill-rule="evenodd" clip-rule="evenodd" d="M.01.73c0 .402.27.73.602.73h2.1c.765 0 1.408.554 1.649 1.436l3.183 11.58-1.81 5.491c-.162.488.138.989.556 1h13.248c.331 0 .601-.326.601-.729 0-.403-.27-.73-.601-.73H7.176l1.412-4.278h10.95c.266 0 .491-.21.571-.5L23.87 4.466c.18-.493-.122-1.006-.547-1.024H5.774L5.498 2.44C5.095.967 3.992 0 2.713 0H.612C.28 0 .01.327.01.73zm8.603 13.04L6.175 4.902H22.4l-3.25 8.869H8.613zm-1.086 8.004c.755 0 1.366.723 1.366 1.614 0 .89-.611 1.612-1.366 1.612-.755 0-1.367-.722-1.367-1.612 0-.891.612-1.614 1.367-1.614zm10.932 0c.754 0 1.366.723 1.366 1.614 0 .89-.612 1.612-1.366 1.612-.755 0-1.367-.722-1.367-1.612 0-.891.612-1.614 1.367-1.614z" fill="#1A1A1A"/></svg>