<svg width="20" height="24" fill="none" xmlns="http://www.w3.org/2000/svg"><path fill-rule="evenodd" clip-rule="evenodd" d="M.99 9.116C.99 4.085 5.063 0 10.08 0c5.018 0 9.091 4.085 9.091 9.116 0 3.671-2.613 6.976-4.799 9.737l-3.869 4.934c-.247.251-.601.312-.84.007a158.86 158.86 0 01-1.246-1.619c-.864-1.133-1.74-2.281-2.635-3.329C3.597 16.084.99 12.784.99 9.116zm17.118 0c0-4.45-3.59-8.05-8.027-8.05-4.438 0-8.028 3.6-8.028 8.05 0 3.3 2.481 6.44 4.558 9.068.729.98 1.507 1.954 2.28 2.923.4.5.799 1 1.19 1.498l3.463-4.413.001-.002c2.078-2.628 4.563-5.771 4.563-9.074z" fill="#000"/><path fill-rule="evenodd" clip-rule="evenodd" d="M6.184 8.89c0-2.452 1.942-4.446 4.329-4.446 2.387 0 4.33 1.994 4.33 4.445 0 2.451-1.943 4.444-4.33 4.444-2.39 0-4.329-1.99-4.329-4.444zm7.647 0c0-1.885-1.482-3.407-3.318-3.407-1.835 0-3.317 1.522-3.317 3.406 0 1.882 1.484 3.406 3.317 3.406 1.835 0 3.318-1.521 3.318-3.406z" fill="#000"/></svg>