<svg width="64" height="64" fill="none" xmlns="http://www.w3.org/2000/svg"><path d="M47.854 26.324l-6.718-.001-36.061-.003c-1.72 0-3.12-1.43-3.12-3.187s1.4-3.186 3.12-3.186l40.509.002v-1.994l-40.508-.002c-2.797 0-5.073 2.323-5.074 5.18L0 58.815c0 1.578 1.256 2.861 2.802 2.861l45.051.004c1.545 0 2.802-1.284 2.802-2.86l.002-20.796v-8.84c-.001-1.577-1.258-2.86-2.803-2.86zm.847 32.496a.86.86 0 01-.849.867l-45.051-.004a.86.86 0 01-.85-.867l.003-31.608c.63.505 1.377.86 2.194 1.015v.09h.926l36.061.003h6.718a.86.86 0 01.85.868l-.002 8.84V58.82z" fill="#AAA"/><path d="M47.682 22.158H6.507v1.196h41.175v-1.196z" fill="#AAA"/><path d="M59.145 8.374a16.376 16.376 0 00-22.417-.998l.647-5.121L35.44 2l-1.09 8.636 8.456 1.113.25-1.977-5.27-.694a14.452 14.452 0 0119.98.706c5.712 5.835 5.711 15.328-.002 21.162l1.38 1.41c6.475-6.612 6.476-17.37.002-23.982z" fill="#AAA"/></svg>