<svg width="64" height="51" fill="none" xmlns="http://www.w3.org/2000/svg"><g clip-path="url(#clip0)"><path d="M63.85 26.813a2.224 2.224 0 00-1.067-1.933l-.407-.248c.69-1.954 2.094-8.645-6.878-16.797C50.686 3.46 43.366.829 34.888.422 27.221.05 19.275 1.51 13.076 4.417 5.334 8.05.33 14.005.016 19.96c-.198 3.762 1.38 9.348 10.02 14.605C15.07 37.628 21 38.776 26.63 38.776a43.34 43.34 0 0010.437-1.286l-.002.648-3.78 2.193c-1.101.646-1.96 2.16-1.956 3.446.002.728.287 1.312.78 1.6.218.127.463.19.724.19.334 0 .691-.103 1.042-.31l3.311-1.92c.091.264.227.508.402.723-.693.757-1.167 1.836-1.164 2.79.001.729.287 1.312.78 1.601.218.128.463.19.724.19.334 0 .69-.103 1.042-.31l2.749-1.593 5.843 3.56c.368.226.775.339 1.183.339a2.268 2.268 0 001.421-.505l11.939-7.982a3.658 3.658 0 001.745-3.133l-.037-11.82c.02-.126.036-.253.036-.384zm-13.77 7.085a3.347 3.347 0 00-.643-.514l-8.13-4.953 10.508-6.317a2.595 2.595 0 012.685.015l7.284 4.444a.249.249 0 01.125.226.248.248 0 01-.126.222L50.08 33.898zm-39.048-1.029c-6.181-3.76-9.32-8.188-9.077-12.804.274-5.222 4.848-10.53 11.934-13.854C25.646.697 44.651.626 54.205 9.307c7.611 6.916 7.002 12.39 6.465 14.283l-5.17-3.155a4.503 4.503 0 00-2.83-.633c-1.782-5.477-8.162-11.256-18.678-12.114-3.678-.3-7.61.034-11.685.993-3.19.752-4.933 1.641-6.866 2.922l1.061 1.655c1.792-1.188 3.318-1.964 6.242-2.652 3.88-.914 7.611-1.233 11.093-.949 9.624.785 15.412 5.912 16.986 10.758L38.4 27.881c-.048.023-.096.044-.143.07a2.322 2.322 0 00-1.17 2.032l-.015 5.466c-7.466 1.983-18.01 2.304-26.04-2.581zm22.263 11.36c-.25.145-.48.191-.604.12-.121-.071-.197-.292-.197-.577-.003-.872.626-1.979 1.37-2.415l7.13-4.133.006 2.537-7.705 4.467zm5.095 3.075c-.25.146-.482.192-.605.12-.12-.07-.196-.292-.197-.576-.002-.871.627-1.979 1.37-2.415l7.13-4.133.007 2.537-7.705 4.467zm5.266-1.689l3.312-1.92a.595.595 0 00.294-.516l-.01-3.9a.596.596 0 00-.29-.51.573.573 0 00-.582-.002l-7.156 4.148-.054-.032a.37.37 0 01-.175-.318v-.275l2.878-1.668a.595.595 0 00.294-.517l-.01-3.9a.597.597 0 00-.29-.51.573.573 0 00-.582-.002l-2.274 1.318.019-7.02c0-.185.115-.278.182-.317a.343.343 0 01.363.005l8.863 5.4c.433.264.702.748.7 1.262l-.033 11.95a.342.342 0 01-.105.257l-.124.082a.335.335 0 01-.316-.026l-4.904-2.989zM61.1 40.459l-10.049 6.718.03-10.83a3.424 3.424 0 00-.078-.71l10.874-6.388.03 9.774a1.668 1.668 0 01-.807 1.436z" fill="#AAA"/></g><defs><clipPath id="clip0"><path fill="#fff" d="M0 0h64v51H0z"/></clipPath></defs></svg>