<svg width="64" height="64" fill="none" xmlns="http://www.w3.org/2000/svg"><path d="M44.14 27.945l2.064 3.666 1.018-.597-2.085-3.702 1.327.351.294-1.16-3.247-.858-.843 3.321 1.136.3.335-1.32zm-4.748 2.83l2.066 3.666 1.017-.597-2.086-3.702 1.328.351.294-1.16-3.247-.858-.843 3.321 1.136.3.335-1.32zm2.265 6.735l8.276-4.947-.593-1.034-8.275 4.947.593 1.034z" fill="#AAA"/><path d="M44.513 43.492l14.163-8.707L39.346 2 20.883 13.35l17.405 29.52c-4.15 1.11-7.063 5.132-6.713 9.648.375 4.823 4.339 8.494 8.998 8.494.238 0 .48-.01.722-.03 4.965-.402 8.683-4.854 8.29-9.923a9.218 9.218 0 00-5.073-7.567zm-5.835-38.75l17.314 29.362-13.962 8.583a8.81 8.81 0 00-1.635-.118L23.568 14.03l15.11-9.29zm2.463 54.25c-3.892.318-7.306-2.66-7.615-6.632-.309-3.971 2.605-7.46 6.495-7.775a6.938 6.938 0 015.153 1.706 7.23 7.23 0 012.461 4.926c.31 3.971-2.604 7.459-6.494 7.775z" fill="#AAA"/><path d="M40.428 49.827c-1.06.086-1.852 1.036-1.769 2.117.08 1.029.926 1.813 1.921 1.813.05 0 .102-.002.153-.007 1.06-.086 1.853-1.035 1.77-2.117-.084-1.082-1.02-1.895-2.075-1.806zm.213 2.73a.76.76 0 01-.811-.708.766.766 0 01.752-.83c.388 0 .72.307.751.71a.767.767 0 01-.692.828zm-6.923-9l.628-.546L13.019 6.35a6.251 6.251 0 00-4.957-3.114L3.134 2.89 3 4.883l4.928.346a4.3 4.3 0 013.41 2.143l20.5 35.237c-2.658 2.645-4.053 6.394-3.758 10.192l1.95-.158c-.268-3.444 1.111-6.841 3.688-9.086zm26.731-5.625l-11.316 6.894 1.136 1.633 11.181-6.812-1.001-1.715z" fill="#AAA"/></svg>